<svg xmlns="http://www.w3.org/2000/svg" width="1200" height="660" viewBox="0 0 1200 660" role="img" aria-labelledby="title desc">
  <title id="title">EcoTrace animated activity heatmap</title>
  <desc id="desc">A centered twelve-week, seven-day activity heatmap with animated green intensity blocks for sustainability actions.</desc>
  <style>
    .bg { fill: #081814; }
    .panel { fill: #10231d; stroke: rgba(251,250,245,.14); }
    .title { font: 900 34px ui-sans-serif, system-ui, -apple-system, Segoe UI, sans-serif; fill: #fbfaf5; }
    .muted { font: 700 16px ui-sans-serif, system-ui, -apple-system, Segoe UI, sans-serif; fill: #a7b7af; }
    .badge { font: 900 16px ui-sans-serif, system-ui, -apple-system, Segoe UI, sans-serif; fill: #d8eeee; }
    .month { font: 900 19px ui-sans-serif, system-ui, -apple-system, Segoe UI, sans-serif; fill: #c9d7d0; }
    .cell { stroke: rgba(251,250,245,.12); stroke-width: 1.2; animation: breathe 3.2s ease-in-out infinite; transform-box: fill-box; transform-origin: center; }
    .c0 { fill: #163426; opacity: .78; }
    .c1 { fill: #1f4c31; }
    .c2 { fill: #28683d; }
    .c3 { fill: #348450; }
    .c4 { fill: #47a862; }
    .w2 .cell { animation-delay: .08s; }
    .w3 .cell { animation-delay: .16s; }
    .w4 .cell { animation-delay: .24s; }
    .w5 .cell { animation-delay: .32s; }
    .w6 .cell { animation-delay: .40s; }
    .w7 .cell { animation-delay: .48s; }
    .w8 .cell { animation-delay: .56s; }
    .w9 .cell { animation-delay: .64s; }
    .w10 .cell { animation-delay: .72s; }
    .w11 .cell { animation-delay: .80s; }
    .w12 .cell { animation-delay: .88s; }
    .cursor { animation: scan 5.4s ease-in-out infinite; }
    .tooltip { animation: tip 5.4s ease-in-out infinite; }
    @keyframes breathe { 0%,100% { filter: saturate(.9); transform: scale(.965); } 50% { filter: saturate(1.32); transform: scale(1); } }
    @keyframes scan { 0%,12% { transform: translate(0,0); opacity: 0; } 24%,72% { opacity: 1; } 88%,100% { transform: translate(630px,280px); opacity: 0; } }
    @keyframes tip { 0%,22% { opacity: 0; transform: translateY(10px); } 34%,72% { opacity: 1; transform: translateY(0); } 90%,100% { opacity: 0; transform: translateY(10px); } }
  </style>
  <rect class="bg" width="1200" height="660" rx="30"/>
  <rect class="panel" x="30" y="28" width="1140" height="604" rx="28"/>
  <text x="76" y="88" class="title">Activity heatmap</text>
  <text x="76" y="124" class="muted">Twelve weeks of logged eco-positive behavior, tasks, habits, and avoided CO2.</text>
  <rect x="972" y="58" width="150" height="42" rx="21" fill="rgba(251,250,245,.08)" stroke="rgba(251,250,245,.12)"/>
  <text x="1047" y="85" text-anchor="middle" class="badge">84 active days</text>

  <g data-weeks="12" data-days="7">
    <text x="187" y="174" class="month">Mar</text>
    <text x="397" y="174" class="month">Apr</text>
    <text x="607" y="174" class="month">May</text>
    <text x="817" y="174" class="month">Jun</text>

    <g id="heatmap-grid" transform="translate(187 198)">
      <g class="w1">
        <rect class="cell c1" x="0" y="0" width="56" height="56" rx="11"/><rect class="cell c3" x="0" y="70" width="56" height="56" rx="11"/><rect class="cell c2" x="0" y="140" width="56" height="56" rx="11"/><rect class="cell c0" x="0" y="210" width="56" height="56" rx="11"/><rect class="cell c2" x="0" y="280" width="56" height="56" rx="11"/><rect class="cell c1" x="0" y="350" width="56" height="56" rx="11"/><rect class="cell c3" x="0" y="420" width="56" height="56" rx="11"/>
      </g>
      <g class="w2" transform="translate(70 0)">
        <rect class="cell c2" x="0" y="0" width="56" height="56" rx="11"/><rect class="cell c1" x="0" y="70" width="56" height="56" rx="11"/><rect class="cell c4" x="0" y="140" width="56" height="56" rx="11"/><rect class="cell c2" x="0" y="210" width="56" height="56" rx="11"/><rect class="cell c3" x="0" y="280" width="56" height="56" rx="11"/><rect class="cell c0" x="0" y="350" width="56" height="56" rx="11"/><rect class="cell c2" x="0" y="420" width="56" height="56" rx="11"/>
      </g>
      <g class="w3" transform="translate(140 0)">
        <rect class="cell c3" x="0" y="0" width="56" height="56" rx="11"/><rect class="cell c2" x="0" y="70" width="56" height="56" rx="11"/><rect class="cell c1" x="0" y="140" width="56" height="56" rx="11"/><rect class="cell c3" x="0" y="210" width="56" height="56" rx="11"/><rect class="cell c4" x="0" y="280" width="56" height="56" rx="11"/><rect class="cell c2" x="0" y="350" width="56" height="56" rx="11"/><rect class="cell c1" x="0" y="420" width="56" height="56" rx="11"/>
      </g>
      <g class="w4" transform="translate(210 0)">
        <rect class="cell c0" x="0" y="0" width="56" height="56" rx="11"/><rect class="cell c2" x="0" y="70" width="56" height="56" rx="11"/><rect class="cell c3" x="0" y="140" width="56" height="56" rx="11"/><rect class="cell c4" x="0" y="210" width="56" height="56" rx="11"/><rect class="cell c2" x="0" y="280" width="56" height="56" rx="11"/><rect class="cell c3" x="0" y="350" width="56" height="56" rx="11"/><rect class="cell c2" x="0" y="420" width="56" height="56" rx="11"/>
      </g>
      <g class="w5" transform="translate(280 0)">
        <rect class="cell c2" x="0" y="0" width="56" height="56" rx="11"/><rect class="cell c4" x="0" y="70" width="56" height="56" rx="11"/><rect class="cell c1" x="0" y="140" width="56" height="56" rx="11"/><rect class="cell c2" x="0" y="210" width="56" height="56" rx="11"/><rect class="cell c3" x="0" y="280" width="56" height="56" rx="11"/><rect class="cell c1" x="0" y="350" width="56" height="56" rx="11"/><rect class="cell c4" x="0" y="420" width="56" height="56" rx="11"/>
      </g>
      <g class="w6" transform="translate(350 0)">
        <rect class="cell c3" x="0" y="0" width="56" height="56" rx="11"/><rect class="cell c1" x="0" y="70" width="56" height="56" rx="11"/><rect class="cell c2" x="0" y="140" width="56" height="56" rx="11"/><rect class="cell c4" x="0" y="210" width="56" height="56" rx="11"/><rect class="cell c2" x="0" y="280" width="56" height="56" rx="11"/><rect class="cell c0" x="0" y="350" width="56" height="56" rx="11"/><rect class="cell c3" x="0" y="420" width="56" height="56" rx="11"/>
      </g>
      <g class="w7" transform="translate(420 0)">
        <rect class="cell c4" x="0" y="0" width="56" height="56" rx="11"/><rect class="cell c2" x="0" y="70" width="56" height="56" rx="11"/><rect class="cell c3" x="0" y="140" width="56" height="56" rx="11"/><rect class="cell c1" x="0" y="210" width="56" height="56" rx="11"/><rect class="cell c4" x="0" y="280" width="56" height="56" rx="11"/><rect class="cell c3" x="0" y="350" width="56" height="56" rx="11"/><rect class="cell c2" x="0" y="420" width="56" height="56" rx="11"/>
      </g>
      <g class="w8" transform="translate(490 0)">
        <rect class="cell c2" x="0" y="0" width="56" height="56" rx="11"/><rect class="cell c3" x="0" y="70" width="56" height="56" rx="11"/><rect class="cell c4" x="0" y="140" width="56" height="56" rx="11"/><rect class="cell c2" x="0" y="210" width="56" height="56" rx="11"/><rect class="cell c1" x="0" y="280" width="56" height="56" rx="11"/><rect class="cell c4" x="0" y="350" width="56" height="56" rx="11"/><rect class="cell c3" x="0" y="420" width="56" height="56" rx="11"/>
      </g>
      <g class="w9" transform="translate(560 0)">
        <rect class="cell c1" x="0" y="0" width="56" height="56" rx="11"/><rect class="cell c4" x="0" y="70" width="56" height="56" rx="11"/><rect class="cell c2" x="0" y="140" width="56" height="56" rx="11"/><rect class="cell c3" x="0" y="210" width="56" height="56" rx="11"/><rect class="cell c4" x="0" y="280" width="56" height="56" rx="11"/><rect class="cell c2" x="0" y="350" width="56" height="56" rx="11"/><rect class="cell c3" x="0" y="420" width="56" height="56" rx="11"/>
      </g>
      <g class="w10" transform="translate(630 0)">
        <rect class="cell c3" x="0" y="0" width="56" height="56" rx="11"/><rect class="cell c2" x="0" y="70" width="56" height="56" rx="11"/><rect class="cell c1" x="0" y="140" width="56" height="56" rx="11"/><rect class="cell c4" x="0" y="210" width="56" height="56" rx="11"/><rect class="cell c3" x="0" y="280" width="56" height="56" rx="11"/><rect class="cell c1" x="0" y="350" width="56" height="56" rx="11"/><rect class="cell c4" x="0" y="420" width="56" height="56" rx="11"/>
      </g>
      <g class="w11" transform="translate(700 0)">
        <rect class="cell c4" x="0" y="0" width="56" height="56" rx="11"/><rect class="cell c3" x="0" y="70" width="56" height="56" rx="11"/><rect class="cell c2" x="0" y="140" width="56" height="56" rx="11"/><rect class="cell c4" x="0" y="210" width="56" height="56" rx="11"/><rect class="cell c2" x="0" y="280" width="56" height="56" rx="11"/><rect class="cell c3" x="0" y="350" width="56" height="56" rx="11"/><rect class="cell c4" x="0" y="420" width="56" height="56" rx="11"/>
      </g>
      <g class="w12" transform="translate(770 0)">
        <rect class="cell c2" x="0" y="0" width="56" height="56" rx="11"/><rect class="cell c4" x="0" y="70" width="56" height="56" rx="11"/><rect class="cell c3" x="0" y="140" width="56" height="56" rx="11"/><rect class="cell c4" x="0" y="210" width="56" height="56" rx="11"/><rect class="cell c3" x="0" y="280" width="56" height="56" rx="11"/><rect class="cell c2" x="0" y="350" width="56" height="56" rx="11"/><rect class="cell c4" x="0" y="420" width="56" height="56" rx="11"/>
      </g>
    </g>
  </g>

  <g class="cursor" transform="translate(257 268)">
    <rect x="0" y="0" width="58" height="58" rx="12" fill="none" stroke="#d8eeee" stroke-width="4"/>
  </g>
  <g class="tooltip" transform="translate(720 430)">
    <rect width="330" height="78" rx="18" fill="#fbfaf5"/>
    <text x="22" y="33" font-family="ui-sans-serif, system-ui" font-size="17" font-weight="900" fill="#10231d">Sunday, Jun 14</text>
    <text x="22" y="58" font-family="ui-sans-serif, system-ui" font-size="15" font-weight="700" fill="#5b6862">8 actions, 10.5 kg CO2 avoided</text>
  </g>
</svg>
