<svg xmlns="http://www.w3.org/2000/svg" width="1200" height="300" viewBox="0 0 1200 300" role="img" aria-labelledby="title desc">
  <title id="title">EcoTrace product loop</title>
  <desc id="desc">Animated flow showing EcoTrace moving from logging to calculation, coaching, habits, and rewards.</desc>
  <style>
    .bg { fill: #fbfaf5; }
    .card { fill: #ffffff; stroke: rgba(16,35,29,.14); }
    .title { font: 900 24px ui-sans-serif, system-ui, -apple-system, Segoe UI, sans-serif; fill: #10231d; }
    .small { font: 700 13px ui-sans-serif, system-ui, -apple-system, Segoe UI, sans-serif; fill: #5b6862; }
    .label { font: 900 13px ui-sans-serif, system-ui, -apple-system, Segoe UI, sans-serif; fill: #01696f; letter-spacing: .08em; }
    .path { stroke-dasharray: 18 18; animation: move 1.2s linear infinite; }
    .float { animation: lift 3s ease-in-out infinite; transform-box: fill-box; transform-origin: center; }
    .n2 .float { animation-delay: .25s; }
    .n3 .float { animation-delay: .5s; }
    .n4 .float { animation-delay: .75s; }
    .n5 .float { animation-delay: 1s; }
    .spark { transform-origin: center; animation: pulse 1.9s ease-in-out infinite; }
    @keyframes move { to { stroke-dashoffset: -36; } }
    @keyframes lift { 0%,100% { transform: translateY(0); } 50% { transform: translateY(-7px); } }
    @keyframes pulse { 0%,100% { opacity: .35; transform: scale(.82); } 50% { opacity: 1; transform: scale(1.08); } }
  </style>
  <rect class="bg" width="1200" height="300" rx="28"/>
  <rect x="30" y="28" width="1140" height="244" rx="28" fill="#f3efe5"/>
  <path class="path" d="M152 160H1048" fill="none" stroke="#01696f" stroke-width="5" stroke-linecap="round"/>

  <g class="node n1" transform="translate(60 82)">
    <g class="float">
      <rect class="card" width="184" height="156" rx="22"/>
      <rect x="24" y="24" width="44" height="44" rx="14" fill="#d8eeee"/>
      <path d="M38 47h22M49 36v22" stroke="#01696f" stroke-width="5" stroke-linecap="round"/>
      <text x="24" y="92" class="label">LOG</text>
      <text x="24" y="118" class="title">Activity</text>
      <text x="24" y="140" class="small">commute, meal, energy</text>
    </g>
  </g>

  <g class="node n2" transform="translate(286 82)">
    <g class="float">
      <rect class="card" width="184" height="156" rx="22"/>
      <circle cx="46" cy="46" r="25" fill="#f4e7c3"/>
      <path d="M35 52l10-18 11 25 10-18" fill="none" stroke="#b77b1d" stroke-width="5" stroke-linecap="round" stroke-linejoin="round"/>
      <text x="24" y="92" class="label">CALCULATE</text>
      <text x="24" y="118" class="title">CO2 impact</text>
      <text x="24" y="140" class="small">factor math + swaps</text>
    </g>
  </g>

  <g class="node n3" transform="translate(512 82)">
    <g class="float">
      <rect class="card" width="184" height="156" rx="22"/>
      <rect x="24" y="24" width="62" height="44" rx="16" fill="#e5ddcc"/>
      <path d="M40 46h30M40 58h20" stroke="#10231d" stroke-width="4" stroke-linecap="round"/>
      <circle class="spark" cx="82" cy="30" r="8" fill="#01696f"/>
      <text x="24" y="92" class="label">COACH</text>
      <text x="24" y="118" class="title">Next move</text>
      <text x="24" y="140" class="small">AI + fallback coach</text>
    </g>
  </g>

  <g class="node n4" transform="translate(738 82)">
    <g class="float">
      <rect class="card" width="184" height="156" rx="22"/>
      <rect x="26" y="26" width="22" height="22" rx="6" fill="#2f7d45"/>
      <rect x="56" y="26" width="22" height="22" rx="6" fill="#28683d"/>
      <rect x="86" y="26" width="22" height="22" rx="6" fill="#47a862"/>
      <rect x="26" y="56" width="22" height="22" rx="6" fill="#1f4c31"/>
      <rect x="56" y="56" width="22" height="22" rx="6" fill="#47a862"/>
      <rect x="86" y="56" width="22" height="22" rx="6" fill="#2f7d45"/>
      <text x="24" y="102" class="label">REPEAT</text>
      <text x="24" y="128" class="title">Habits</text>
      <text x="24" y="150" class="small">heatmap + streaks</text>
    </g>
  </g>

  <g class="node n5" transform="translate(964 82)">
    <g class="float">
      <rect class="card" width="184" height="156" rx="22"/>
      <circle cx="48" cy="44" r="26" fill="#f4e7c3"/>
      <text x="48" y="51" text-anchor="middle" font-family="ui-sans-serif, system-ui" font-size="15" font-weight="900" fill="#b77b1d">+XP</text>
      <text x="24" y="92" class="label">REWARD</text>
      <text x="24" y="118" class="title">Level up</text>
      <text x="24" y="140" class="small">badges + goals</text>
    </g>
  </g>
</svg>
